<?xml version="1.0" encoding="UTF-8"?>
<svg xmlns="http://www.w3.org/2000/svg" version="1.1" viewBox="0 0 159.883728 159.8859634">
  <path d="M147.883728,0H12C5.3725586,0,0,5.3726196,0,12v26c0,6.6274414,5.3725586,12,12,12h53.8650513L3.5147095,112.3502808C1.0344238,114.8305664-.1195068,118.1259766.0256958,121.3742065c-.0071411.1702271-.0256958.3375244-.0256958.5095215v26c0,6.6274414,5.3725586,12,12,12h26c.1224976,0,.2412109-.0146484.362793-.0183105,3.300293.1918945,6.6642456-.9597778,9.18573-3.4812622l108.8053589-108.8053589c2.4470215-2.4470215,3.6036987-5.6875,3.4952393-8.8931885.0129395-.2282104.0346069-.4541626.0346069-.6856079V12c0-6.6273804-5.3726196-12-12-12Z"/>
  <rect x="109.8837138" y="109.8837451" width="50" height="50" rx="12" ry="12"/>
</svg>
